<svg width="330" height="279" viewBox="0 0 330 279" fill="none" xmlns="http://www.w3.org/2000/svg">
    <path opacity="0.2" d="M77.6701 46.5868V49.7218L75.9402 111.886L82.4864 117.555H118.442V56.4873H191.027L189.305 44.4589L77.6701 46.5868Z" fill="black" />
    <path d="M116.72 47.5858H75.9402V111.886H116.72V47.5858Z" fill="white" stroke="#263238" stroke-linecap="round" stroke-linejoin="round" />
    <path d="M114.226 50.2254H78.4336V109.247H114.226V50.2254Z" fill="#263238" stroke="#263238" stroke-linecap="round" stroke-linejoin="round" />
    <path
        d="M91.6235 102.969C91.6235 104.405 91.0527 105.783 90.0368 106.799C89.0208 107.815 87.6429 108.386 86.2062 108.386C84.7695 108.386 83.3916 107.815 82.3756 106.799C81.3597 105.783 80.7889 104.405 80.7889 102.969C80.7889 99.9798 83.2255 91.9879 86.2062 91.9879C89.1869 91.9879 91.6235 99.9798 91.6235 102.969Z"
        fill="white"
        stroke="#263238"
        stroke-linecap="round"
        stroke-linejoin="round"
    />
    <path
        d="M91.6235 102.969C91.573 101.781 91.385 100.604 91.0631 99.4599C90.9803 99.5531 90.8907 99.64 90.795 99.7198C90.1548 100.587 89.6102 101.521 89.1707 102.506C89.1707 102.506 88.3585 104.13 87.8306 103.74C86.5037 102.849 85.1261 102.035 83.7047 101.304C82.8515 100.879 82.0363 100.382 81.2681 99.8173C80.9938 100.861 80.8332 101.931 80.7889 103.009C80.7889 104.446 81.3597 105.824 82.3756 106.84C83.3916 107.856 84.7695 108.426 86.2062 108.426C87.6429 108.426 89.0208 107.856 90.0368 106.84C91.0527 105.824 91.6235 104.446 91.6235 103.009V102.969Z"
        fill="#FFC100"
        stroke="#263238"
        stroke-linecap="round"
        stroke-linejoin="round"
    />
    <path
        d="M106.909 102.969C106.855 104.368 106.26 105.692 105.251 106.663C104.242 107.634 102.896 108.176 101.496 108.176C100.095 108.176 98.7491 107.634 97.7398 106.663C96.7306 105.692 96.1366 104.368 96.0823 102.969C96.0823 99.9798 98.5189 91.9879 101.5 91.9879C104.48 91.9879 106.909 99.9798 106.909 102.969Z"
        fill="white"
        stroke="#263238"
        stroke-linecap="round"
        stroke-linejoin="round"
    />
    <path
        d="M106.909 102.969C106.862 101.782 106.676 100.604 106.356 99.4599C106.272 99.5511 106.182 99.6378 106.088 99.7198C105.445 100.585 104.9 101.52 104.464 102.506C104.464 102.506 103.652 104.13 103.116 103.74C101.793 102.846 100.418 102.032 98.9981 101.304C98.1449 100.879 97.3297 100.382 96.5615 99.8173C96.2832 100.86 96.1225 101.931 96.0823 103.009C96.1366 104.409 96.7306 105.733 97.7398 106.703C98.7491 107.674 100.095 108.217 101.496 108.217C102.896 108.217 104.242 107.674 105.251 106.703C106.26 105.733 106.855 104.409 106.909 103.009V102.969Z"
        fill="#FFC100"
        stroke="#263238"
        stroke-linecap="round"
        stroke-linejoin="round"
    />
    <path d="M97.3737 79.0904L100.874 87.0092H95.8955L94.4255 80.195L97.3737 79.0904Z" fill="white" stroke="#263238" stroke-linecap="round" stroke-linejoin="round" />
    <path d="M98.6651 73.5594H88.7158L84.8417 86.8305H94.7909L98.6651 73.5594Z" fill="white" stroke="#263238" stroke-linecap="round" stroke-linejoin="round" />
    <path d="M97.3168 74.8508H89.3087L86.1899 85.5391H94.198L97.3168 74.8508Z" fill="white" stroke="#263238" stroke-linecap="round" stroke-linejoin="round" />
    <path d="M101.605 53.4822H93.1341V68.0366H101.605V53.4822Z" fill="white" stroke="#263238" stroke-linecap="round" stroke-linejoin="round" />
    <path d="M107.867 59.1919H102.718V68.0366H107.867V59.1919Z" fill="white" stroke="#263238" stroke-linecap="round" stroke-linejoin="round" />
    <path d="M88.2366 31.9432L82.2671 44.4752H89.3737L91.4772 34.729L88.2366 31.9432Z" fill="white" stroke="#263238" stroke-linecap="round" stroke-linejoin="round" />
    <path d="M85.4265 25.2589H99.6397L105.171 44.2071H90.9574L85.4265 25.2589Z" fill="white" stroke="#263238" stroke-linecap="round" stroke-linejoin="round" />
    <path d="M87.3432 27.1025H98.795L103.254 42.3716H91.8021L87.3432 27.1025Z" fill="white" stroke="#263238" stroke-linecap="round" stroke-linejoin="round" />
    <path d="M114.226 68.2965H78.4336V71.7889H114.226V68.2965Z" fill="white" stroke="#263238" stroke-linecap="round" stroke-linejoin="round" />
    <path d="M114.226 86.9361H78.4336V90.4285H114.226V86.9361Z" fill="white" stroke="#263238" stroke-linecap="round" stroke-linejoin="round" />
    <path d="M189.305 44.4589H75.9402V47.5939H189.305V44.4589Z" fill="white" stroke="#263238" stroke-linecap="round" stroke-linejoin="round" />
    <path d="M124.322 35.2731L153.512 3.6467" stroke="#263238" stroke-linecap="round" stroke-linejoin="round" />
    <path d="M133.443 24.6254L125.232 8.21118" stroke="#263238" stroke-linecap="round" stroke-linejoin="round" />
    <path d="M143.173 14.8954L142.872 2.43652" stroke="#263238" stroke-linecap="round" stroke-linejoin="round" />
    <path d="M137.829 20.6781L177.837 10.0304" stroke="#263238" stroke-linecap="round" stroke-linejoin="round" />
    <path d="M118.929 32.0163C119.189 37.2142 123.331 43.8498 128.423 43.8498C133.516 43.8498 137.658 37.2142 137.918 32.0163H118.929Z" fill="#FFC100" stroke="#263238" stroke-linecap="round" stroke-linejoin="round" />
    <path
        d="M180.265 9.99795C180.265 9.51605 180.122 9.04496 179.854 8.64428C179.587 8.24359 179.206 7.93129 178.761 7.74687C178.316 7.56246 177.826 7.51421 177.353 7.60822C176.881 7.70224 176.446 7.93429 176.106 8.27505C175.765 8.6158 175.533 9.04996 175.439 9.5226C175.345 9.99524 175.393 10.4852 175.577 10.9304C175.762 11.3756 176.074 11.7561 176.475 12.0239C176.876 12.2916 177.347 12.4345 177.829 12.4345C178.475 12.4345 179.095 12.1778 179.551 11.7209C180.008 11.2639 180.265 10.6442 180.265 9.99795Z"
        fill="#FFC100"
    />
    <path
        d="M156.549 2.73705C156.549 2.25515 156.406 1.78407 156.139 1.38338C155.871 0.982692 155.49 0.670394 155.045 0.485978C154.6 0.301561 154.11 0.253311 153.637 0.347326C153.165 0.441341 152.731 0.673401 152.39 1.01416C152.049 1.35492 151.817 1.78907 151.723 2.26171C151.629 2.73436 151.677 3.22427 151.862 3.66949C152.046 4.11471 152.358 4.49524 152.759 4.76297C153.16 5.0307 153.631 5.1736 154.113 5.1736C154.759 5.1736 155.379 4.9169 155.836 4.45996C156.293 4.00302 156.549 3.38327 156.549 2.73705Z"
        fill="#FFC100"
    />
    <path
        d="M145 2.43655C145 1.95465 144.857 1.48357 144.589 1.08288C144.322 0.682192 143.941 0.369888 143.496 0.185471C143.051 0.00105457 142.561 -0.0471957 142.088 0.0468191C141.616 0.140834 141.181 0.372894 140.841 0.713652C140.5 1.05441 140.268 1.48856 140.174 1.9612C140.08 2.43385 140.128 2.92376 140.312 3.36898C140.497 3.8142 140.809 4.19474 141.21 4.46247C141.611 4.7302 142.082 4.8731 142.564 4.8731C143.21 4.8731 143.829 4.61639 144.286 4.15945C144.743 3.70251 145 3.08277 145 2.43655Z"
        fill="#FFC100"
    />
    <path
        d="M127.668 7.90255C127.668 7.42065 127.525 6.94957 127.257 6.54888C126.99 6.14819 126.609 5.83589 126.164 5.65147C125.719 5.46706 125.229 5.41881 124.756 5.51282C124.284 5.60684 123.849 5.8389 123.509 6.17966C123.168 6.52041 122.936 6.95456 122.842 7.42721C122.748 7.89985 122.796 8.38976 122.98 8.83498C123.165 9.2802 123.477 9.66074 123.878 9.92847C124.279 10.1962 124.75 10.3391 125.232 10.3391C125.878 10.3391 126.498 10.0824 126.954 9.62545C127.411 9.16851 127.668 8.54876 127.668 7.90255Z"
        fill="#FFC100"
    />
    <path d="M260.606 155.687L243.469 162.38H250.966L260.338 157.555L268.899 162.38H276.403L260.606 155.687Z" fill="#263238" stroke="#263238" stroke-linecap="round" stroke-linejoin="round" />
    <path d="M151.108 155.687L133.971 162.38H141.467L150.84 157.555L159.408 162.38H166.905L151.108 155.687Z" fill="#263238" stroke="#263238" stroke-linecap="round" stroke-linejoin="round" />
    <path d="M280.017 69.4985H129.195V157.523H280.017V69.4985Z" fill="#263238" stroke="#263238" stroke-linecap="round" stroke-linejoin="round" />
    <path d="M276.484 71.5533H132.72V155.46H276.484V71.5533Z" fill="#263238" />
    <path opacity="0.3" d="M276.484 71.5533H132.72V155.46H276.484V71.5533Z" fill="white" />
    <path opacity="0.32" d="M276.484 99.4599C253.126 98.5016 227.006 115.541 189.581 136.098C163.006 150.676 144.042 153.032 132.728 152.431V155.46H276.484V99.4599Z" fill="white" />
    <path d="M276.484 71.5533H132.72V155.46H276.484V71.5533Z" stroke="#263238" stroke-linecap="round" stroke-linejoin="round" />
    <path d="M297.26 162.502H111.952V277.807H297.26V162.502Z" fill="white" stroke="#263238" stroke-linecap="round" stroke-linejoin="round" />
    <path d="M170.397 166.026H115.542V186.762H170.397V166.026Z" fill="white" stroke="#263238" stroke-linecap="round" stroke-linejoin="round" />
    <path d="M231.733 166.026H176.878V186.762H231.733V166.026Z" fill="white" stroke="#263238" stroke-linecap="round" stroke-linejoin="round" />
    <path d="M202.032 194.916H116.289V271.935H202.032V194.916Z" fill="white" stroke="#263238" stroke-linecap="round" stroke-linejoin="round" />
    <path d="M198.49 223.058H193.309V237.872H198.49V223.058Z" fill="#263238" stroke="#263238" stroke-linecap="round" stroke-linejoin="round" />
    <path d="M292.541 194.916H206.799V271.935H292.541V194.916Z" fill="white" stroke="#263238" stroke-linecap="round" stroke-linejoin="round" />
    <path d="M215.887 223.058H210.706V237.872H215.887V223.058Z" fill="#263238" stroke="#263238" stroke-linecap="round" stroke-linejoin="round" />
    <path d="M150.75 174.92H135.197V177.884H150.75V174.92Z" fill="#263238" stroke="#263238" stroke-linecap="round" stroke-linejoin="round" />
    <path d="M212.078 174.92H196.525V177.884H212.078V174.92Z" fill="#263238" stroke="#263238" stroke-linecap="round" stroke-linejoin="round" />
    <path d="M294.223 166.026H239.368V186.762H294.223V166.026Z" fill="white" stroke="#263238" stroke-linecap="round" stroke-linejoin="round" />
    <path d="M274.576 174.92H259.022V177.884H274.576V174.92Z" fill="#263238" stroke="#263238" stroke-linecap="round" stroke-linejoin="round" />
    <path
        d="M233.431 186.697C233.431 186.697 228.801 169.706 231.887 170.225C234.974 170.745 248.359 173.832 260.2 171.769C272.042 169.706 302.921 165.076 303.952 167.651C304.984 170.225 305.496 188.768 305.496 188.768L233.431 186.697Z"
        fill="#263238"
        stroke="#263238"
        stroke-linecap="round"
        stroke-linejoin="round"
    />
    <path
        d="M228.801 186.697C228.801 186.697 228.281 169.706 226.227 169.706C224.172 169.706 220.062 173.312 215.928 174.871C211.794 176.431 208.724 172.297 192.765 173.328C176.805 174.359 169.089 176.934 167.027 176.934C164.964 176.934 158.791 174.871 156.712 176.398C154.633 177.925 158.222 179.208 157.207 182.692C156.192 186.177 155.323 190.498 155.323 190.498L157.223 193.901H229.288L228.801 186.697Z"
        fill="#263238"
        stroke="#263238"
        stroke-linecap="round"
        stroke-linejoin="round"
    />
    <path
        d="M155.347 190.498C155.347 190.498 152.618 177.949 149.524 174.343C146.43 170.737 143.839 172.8 143.839 172.8L144.358 175.886C137.855 176.492 131.319 176.663 124.793 176.398C115.526 175.886 113.983 176.918 108.842 175.375C103.701 173.832 101.63 171.257 99.0549 171.257C96.4803 171.257 93.9138 173.832 94.9371 177.43C95.9605 181.027 94.9859 200.049 94.9859 200.049H152.651L156.769 188.678"
        fill="#263238"
    />
    <path
        d="M155.347 190.498C155.347 190.498 152.618 177.949 149.524 174.343C146.43 170.737 143.839 172.8 143.839 172.8L144.358 175.886C137.855 176.492 131.319 176.663 124.793 176.398C115.526 175.886 113.983 176.918 108.842 175.375C103.701 173.832 101.63 171.257 99.0549 171.257C96.4803 171.257 93.9138 173.832 94.9371 177.43C95.9605 181.027 94.9859 200.049 94.9859 200.049H152.651L156.769 188.678"
        stroke="#263238"
        stroke-linecap="round"
        stroke-linejoin="round"
    />
    <path d="M280.789 181.434H116.403V277.945H280.789V181.434Z" fill="#263238" />
    <path opacity="0.3" d="M280.789 181.434H116.403V277.945H280.789V181.434Z" fill="white" />
    <path d="M280.789 181.434H116.403V277.945H280.789V181.434Z" stroke="#263238" stroke-linecap="round" stroke-linejoin="round" />
    <path
        d="M280.789 181.434H303.53C305.271 181.434 306.94 182.125 308.17 183.356C309.401 184.586 310.093 186.256 310.093 187.996V271.651C310.093 273.322 309.429 274.926 308.247 276.107C307.065 277.289 305.462 277.953 303.79 277.953H280.789V181.434Z"
        fill="#263238"
    />
    <path
        opacity="0.3"
        d="M280.789 181.434H303.53C305.271 181.434 306.94 182.125 308.17 183.356C309.401 184.586 310.093 186.256 310.093 187.996V271.651C310.093 273.322 309.429 274.926 308.247 276.107C307.065 277.289 305.462 277.953 303.79 277.953H280.789V181.434Z"
        fill="white"
    />
    <path
        d="M280.789 181.434H303.53C305.271 181.434 306.94 182.125 308.17 183.356C309.401 184.586 310.093 186.256 310.093 187.996V271.651C310.093 273.322 309.429 274.926 308.247 276.107C307.065 277.289 305.462 277.953 303.79 277.953H280.789V181.434Z"
        stroke="#263238"
        stroke-linecap="round"
        stroke-linejoin="round"
    />
    <path
        d="M95.7899 237.076H23.4244C21.8634 237.076 20.598 238.342 20.598 239.903V275.021C20.598 276.582 21.8634 277.848 23.4244 277.848H95.7899C97.3509 277.848 98.6163 276.582 98.6163 275.021V239.903C98.6163 238.342 97.3509 237.076 95.7899 237.076Z"
        fill="#263238"
    />
    <path
        opacity="0.3"
        d="M95.7899 237.076H23.4244C21.8634 237.076 20.598 238.342 20.598 239.903V275.021C20.598 276.582 21.8634 277.848 23.4244 277.848H95.7899C97.3509 277.848 98.6163 276.582 98.6163 275.021V239.903C98.6163 238.342 97.3509 237.076 95.7899 237.076Z"
        fill="white"
    />
    <path
        d="M95.7899 237.076H23.4244C21.8634 237.076 20.598 238.342 20.598 239.903V275.021C20.598 276.582 21.8634 277.848 23.4244 277.848H95.7899C97.3509 277.848 98.6163 276.582 98.6163 275.021V239.903C98.6163 238.342 97.3509 237.076 95.7899 237.076Z"
        stroke="#263238"
        stroke-linecap="round"
        stroke-linejoin="round"
    />
    <path
        d="M98.4782 214.701H20.728C19.167 214.701 17.9016 215.966 17.9016 217.527V238.774C17.9016 240.335 19.167 241.6 20.728 241.6H98.4782C100.039 241.6 101.305 240.335 101.305 238.774V217.527C101.305 215.966 100.039 214.701 98.4782 214.701Z"
        fill="#263238"
    />
    <path
        opacity="0.3"
        d="M98.4782 214.701H20.728C19.167 214.701 17.9016 215.966 17.9016 217.527V238.774C17.9016 240.335 19.167 241.6 20.728 241.6H98.4782C100.039 241.6 101.305 240.335 101.305 238.774V217.527C101.305 215.966 100.039 214.701 98.4782 214.701Z"
        fill="white"
    />
    <path
        d="M98.4782 214.701H20.728C19.167 214.701 17.9016 215.966 17.9016 217.527V238.774C17.9016 240.335 19.167 241.6 20.728 241.6H98.4782C100.039 241.6 101.305 240.335 101.305 238.774V217.527C101.305 215.966 100.039 214.701 98.4782 214.701Z"
        stroke="#263238"
        stroke-linecap="round"
        stroke-linejoin="round"
    />
    <path
        d="M94.8234 181.434H116.436V277.945H94.8234C92.7728 277.945 90.8061 277.131 89.3561 275.681C87.906 274.231 87.0914 272.264 87.0914 270.213V189.166C87.0914 187.115 87.906 185.148 89.3561 183.698C90.8061 182.248 92.7728 181.434 94.8234 181.434Z"
        fill="#263238"
    />
    <path
        opacity="0.3"
        d="M94.8234 181.434H116.436V277.945H94.8234C92.7728 277.945 90.8061 277.131 89.3561 275.681C87.906 274.231 87.0914 272.264 87.0914 270.213V189.166C87.0914 187.115 87.906 185.148 89.3561 183.698C90.8061 182.248 92.7728 181.434 94.8234 181.434Z"
        fill="white"
    />
    <path
        d="M94.8234 181.434H116.436V277.945H94.8234C92.7728 277.945 90.8061 277.131 89.3561 275.681C87.906 274.231 87.0914 272.264 87.0914 270.213V189.166C87.0914 187.115 87.906 185.148 89.3561 183.698C90.8061 182.248 92.7728 181.434 94.8234 181.434V181.434Z"
        stroke="#263238"
        stroke-linecap="round"
        stroke-linejoin="round"
    />
    <path d="M120.285 277.88L117.857 278.018L113.114 212.946L118.06 212.67L120.285 277.88Z" fill="#FFC100" stroke="#263238" stroke-linecap="round" stroke-linejoin="round" />
    <path
        d="M63.1726 211.492C63.1726 211.492 64.334 205.669 66.9574 205.377C69.5807 205.084 115.591 205.377 115.591 205.377C115.591 205.377 120.537 204.792 120.829 210.323L63.1726 211.492Z"
        fill="#263238"
        stroke="#263238"
        stroke-linecap="round"
        stroke-linejoin="round"
    />
    <path d="M121.122 208.577H59.3878V215.854H121.122V208.577Z" fill="#FFC100" stroke="#263238" stroke-linecap="round" stroke-linejoin="round" />
    <path
        d="M55.8954 138.396C55.8954 138.396 58.803 137.235 59.6802 142.181C60.5574 147.127 68.9959 199.237 68.7036 201.876C68.4112 204.516 63.7574 206.538 63.7574 206.538L54.7259 138.396H55.8954Z"
        fill="#263238"
        stroke="#263238"
        stroke-linecap="round"
        stroke-linejoin="round"
    />
    <path
        d="M50.9411 137.235C50.9411 137.235 59.6802 193.145 59.063 214.108C58.4457 235.07 52.5086 277.888 52.5086 277.888H54.5472C54.5472 277.888 63.8549 234.794 65.601 215.862L55.8548 138.396C55.8548 138.396 52.3949 135.196 50.9411 137.235Z"
        fill="#FFC100"
        stroke="#263238"
        stroke-linecap="round"
        stroke-linejoin="round"
    />
    <path
        d="M203.429 103.984C201.606 99.2501 200.54 94.2591 200.269 89.194C199.936 81.2265 203.989 73.7625 213.938 73.5919C223.887 73.4214 232.326 75.7605 232.911 79.9919C233.496 84.2234 229.207 85.6772 229.207 85.6772C229.207 85.6772 231.319 93.328 230.783 94.6112C230.247 95.8945 228.858 96.9016 229.159 98.4691C229.459 100.037 231.758 102.408 230.58 103.423C229.402 104.439 228.249 105.251 228.249 105.251C228.249 105.251 224.651 112.504 223.018 113.714C221.386 114.924 218.787 114.299 218.787 114.299L216.854 113.486C216.854 113.486 213.191 115.436 212.111 118.23C211.031 121.023 209.301 126.863 209.301 126.863C209.301 126.863 204.363 118.579 200.895 117.669C198.455 117.081 195.973 116.687 193.471 116.491C193.471 116.491 202.714 107.907 203.429 103.984Z"
        fill="white"
    />
    <path
        d="M216.886 113.527L218.819 114.339C219.696 114.526 220.599 114.548 221.483 114.404C219.128 112.942 212.712 108.995 214.125 106.169C215.619 103.188 218.097 99.9635 217.853 97.2346C217.609 94.5056 221.581 90.7777 222.32 86.3107C222.864 83.062 217.894 76.7919 215.14 73.6082H213.938C203.989 73.8031 199.936 81.2427 200.269 89.2102C200.54 94.2753 201.606 99.2663 203.429 104C202.714 107.923 193.504 116.548 193.504 116.548C196.005 116.744 198.488 117.138 200.927 117.726C204.395 118.636 209.333 126.92 209.333 126.92C209.333 126.92 211.063 121.08 212.143 118.286C213.223 115.492 216.886 113.527 216.886 113.527Z"
        fill="#FFC100"
    />
    <path
        opacity="0.5"
        d="M216.886 113.527L218.819 114.339C219.696 114.526 220.599 114.548 221.483 114.404C219.128 112.942 212.712 108.995 214.125 106.169C215.619 103.188 218.097 99.9635 217.853 97.2346C217.609 94.5056 221.581 90.7777 222.32 86.3107C222.864 83.062 217.894 76.7919 215.14 73.6082H213.938C203.989 73.8031 199.936 81.2427 200.269 89.2102C200.54 94.2753 201.606 99.2663 203.429 104C202.714 107.923 193.504 116.548 193.504 116.548C196.005 116.744 198.488 117.138 200.927 117.726C204.395 118.636 209.333 126.92 209.333 126.92C209.333 126.92 211.063 121.08 212.143 118.286C213.223 115.492 216.886 113.527 216.886 113.527Z"
        fill="white"
    />
    <path
        d="M203.429 103.984C201.606 99.2501 200.54 94.2591 200.269 89.194C199.936 81.2265 203.989 73.7625 213.938 73.5919C223.887 73.4214 232.326 75.7605 232.911 79.9919C233.496 84.2234 229.207 85.6772 229.207 85.6772C229.207 85.6772 231.319 93.328 230.783 94.6112C230.247 95.8945 228.858 96.9016 229.159 98.4691C229.459 100.037 231.758 102.408 230.58 103.423C229.402 104.439 228.249 105.251 228.249 105.251C228.249 105.251 224.651 112.504 223.018 113.714C221.386 114.924 218.787 114.299 218.787 114.299L216.854 113.486C216.854 113.486 213.191 115.436 212.111 118.23C211.031 121.023 209.301 126.863 209.301 126.863C209.301 126.863 204.363 118.579 200.895 117.669C198.455 117.081 195.973 116.687 193.471 116.491C193.471 116.491 202.714 107.907 203.429 103.984Z"
        stroke="#263238"
        stroke-linecap="round"
        stroke-linejoin="round"
    />
    <path
        d="M229.264 85.929C229.223 85.7828 229.207 85.6934 229.207 85.6934C229.207 85.6934 233.496 84.2315 232.911 80.0082C232.326 75.7848 223.879 73.4214 213.938 73.6082C203.997 73.795 199.936 81.2427 200.269 89.2102C200.538 94.2148 201.585 99.1471 203.372 103.829C204.639 103.383 206.994 102.554 207.961 102.303C208.657 102.172 209.298 101.832 209.796 101.328C209.796 101.328 205.077 96.1462 205.735 93.3198C206.393 90.4934 210.681 88.8041 211.891 90.4366C213.102 92.0691 212.095 97.0721 212.095 97.0721C212.095 97.0721 212.955 97.3564 213.483 96.065C214.011 94.7737 213.67 93.4335 215.92 92.4833C218.17 91.533 220.452 90.8589 220.728 89.9493C221.004 89.0396 218.389 85.596 219.152 84.1016C219.794 82.8752 226.876 85.1249 229.264 85.929Z"
        fill="#263238"
        stroke="#263238"
        stroke-linecap="round"
        stroke-linejoin="round"
    />
    <path d="M228.411 94.733C228.411 94.733 226.722 92.2153 224.773 93.4092" stroke="#263238" stroke-linecap="round" stroke-linejoin="round" />
    <path
        d="M227.079 98.2336C227.022 99.0458 226.633 99.6305 226.202 99.6062C225.772 99.5818 225.479 98.9158 225.536 98.128C225.593 97.3402 225.975 96.731 226.405 96.7554C226.836 96.7798 227.128 97.4458 227.079 98.2336Z"
        fill="#263238"
    />
    <path d="M225.016 108.264L223.416 107.566" stroke="#263238" stroke-linecap="round" stroke-linejoin="round" />
    <path d="M212.143 118.27L213.272 111.025" stroke="#263238" stroke-linecap="round" stroke-linejoin="round" />
    <path d="M210.657 102.879C210.572 104.192 210.709 105.51 211.063 106.778C211.632 108.402 215.311 111.172 215.311 111.172" stroke="#263238" stroke-linecap="round" stroke-linejoin="round" />
    <path
        d="M158.271 229.604C158.271 229.604 149.337 238.79 146.494 239.35C143.652 239.911 140.509 236.345 137.682 232.536C134.856 228.727 125.5 206.936 123.258 203.363C121.016 199.789 118.344 195.379 118.344 195.379C118.344 195.379 109.41 199.44 108.939 201.706C108.677 203.021 108.206 204.285 107.542 205.45C107.542 205.45 105.366 206.53 103.075 203.46C100.785 200.39 101.451 193.218 103.887 192.163C106.324 191.107 112.951 181.409 114.389 179.98C115.826 178.55 117.069 176.366 119.887 179.224C122.706 182.083 126.385 189.945 129.041 194.087C131.697 198.23 136.537 204.069 140.306 209.235C143.319 213.361 149.24 218.364 149.24 218.364L158.271 229.604Z"
        fill="white"
    />
    <path
        d="M149.248 218.396C149.248 218.396 143.351 213.393 140.314 209.267C136.57 204.11 131.778 198.262 129.098 194.12C127.473 191.594 125.459 187.687 123.518 184.374C116.208 177.592 116.517 184.739 114.365 190.481C113.739 192.106 114.267 194.307 115.493 196.808C117.118 195.996 118.369 195.395 118.369 195.395C118.369 195.395 121.049 199.797 123.282 203.379C124.298 205.003 126.799 210.412 129.479 216.179C130.17 217.088 130.836 217.99 131.469 218.875C138.779 229.068 141.662 238.896 145.276 237.799C148.89 236.703 152.919 226.518 152.919 226.518L153.179 223.269L149.248 218.396Z"
        fill="#FFC100"
    />
    <path
        opacity="0.5"
        d="M149.248 218.396C149.248 218.396 143.351 213.393 140.314 209.267C136.57 204.11 131.778 198.262 129.098 194.12C127.473 191.594 125.459 187.687 123.518 184.374C116.208 177.592 116.517 184.739 114.365 190.481C113.739 192.106 114.267 194.307 115.493 196.808C117.118 195.996 118.369 195.395 118.369 195.395C118.369 195.395 121.049 199.797 123.282 203.379C124.298 205.003 126.799 210.412 129.479 216.179C130.17 217.088 130.836 217.99 131.469 218.875C138.779 229.068 141.662 238.896 145.276 237.799C148.89 236.703 152.919 226.518 152.919 226.518L153.179 223.269L149.248 218.396Z"
        fill="white"
    />
    <path
        d="M158.271 229.604C158.271 229.604 149.337 238.79 146.494 239.35C143.652 239.911 140.509 236.345 137.682 232.536C134.856 228.727 125.5 206.936 123.258 203.363C121.016 199.789 118.344 195.379 118.344 195.379C118.344 195.379 109.41 199.44 108.939 201.706C108.677 203.021 108.206 204.285 107.542 205.45C107.542 205.45 105.366 206.53 103.075 203.46C100.785 200.39 101.451 193.218 103.887 192.163C106.324 191.107 112.951 181.409 114.389 179.98C115.826 178.55 117.069 176.366 119.887 179.224C122.706 182.083 126.385 189.945 129.041 194.087C131.697 198.23 136.537 204.069 140.306 209.235C143.319 213.361 149.24 218.364 149.24 218.364L158.271 229.604Z"
        stroke="#263238"
        stroke-linecap="round"
        stroke-linejoin="round"
    />
    <path
        d="M200.294 192.398C205.835 195.387 211.116 198.835 216.082 202.705C222.848 208.228 224.951 211.119 224.667 213.474C224.383 215.83 207.717 245.458 206.572 249.454C205.427 253.45 201.699 263.472 201.699 263.472C201.699 263.472 203.42 265.097 208.196 268.768C212.972 272.439 220.135 274.291 220.208 275.054C220.281 275.817 218.852 277.003 215.27 277.361C211.688 277.718 206.434 276.963 203.51 276.224C200.586 275.484 196.289 276.435 192.448 276.825C188.606 277.214 188.387 272.577 188.143 270.01C187.9 267.444 194.892 253.994 196.2 248.95C197.508 243.907 200.155 236.906 200.18 231.992C200.204 227.078 203.38 213.555 203.38 213.555L188.062 210.445L200.294 192.398Z"
        fill="white"
    />
    <path
        d="M212.614 218.875C212.614 218.875 217.715 216.69 217.715 213.417C217.715 210.144 202.787 206.863 202.787 206.863C202.787 206.863 199.692 203.907 195.136 199.992L188.038 210.445L203.355 213.555C203.355 213.555 200.172 227.07 200.155 231.992C200.139 236.914 197.475 243.899 196.176 248.95C194.876 254.002 187.859 267.452 188.119 270.01C188.379 272.569 188.582 277.206 192.423 276.825C193.902 276.67 195.445 276.443 196.947 276.256C198.336 270.814 199.96 257.787 200.968 253.093C202.064 247.992 209.341 235.224 211.891 229.068C214.442 222.912 212.614 218.875 212.614 218.875Z"
        fill="#FFC100"
    />
    <path
        opacity="0.5"
        d="M212.614 218.875C212.614 218.875 217.715 216.69 217.715 213.417C217.715 210.144 202.787 206.863 202.787 206.863C202.787 206.863 199.692 203.907 195.136 199.992L188.038 210.445L203.355 213.555C203.355 213.555 200.172 227.07 200.155 231.992C200.139 236.914 197.475 243.899 196.176 248.95C194.876 254.002 187.859 267.452 188.119 270.01C188.379 272.569 188.582 277.206 192.423 276.825C193.902 276.67 195.445 276.443 196.947 276.256C198.336 270.814 199.96 257.787 200.968 253.093C202.064 247.992 209.341 235.224 211.891 229.068C214.442 222.912 212.614 218.875 212.614 218.875Z"
        fill="white"
    />
    <path
        d="M200.294 192.398C205.835 195.387 211.116 198.835 216.082 202.705C222.848 208.228 224.951 211.119 224.667 213.474C224.383 215.83 207.717 245.458 206.572 249.454C205.427 253.45 201.699 263.472 201.699 263.472C201.699 263.472 203.42 265.097 208.196 268.768C212.972 272.439 220.135 274.291 220.208 275.054C220.281 275.817 218.852 277.003 215.27 277.361C211.688 277.718 206.434 276.963 203.51 276.224C200.586 275.484 196.289 276.435 192.448 276.825C188.606 277.214 188.387 272.577 188.143 270.01C187.9 267.444 194.892 253.994 196.2 248.95C197.508 243.907 200.155 236.906 200.18 231.992C200.204 227.078 203.38 213.555 203.38 213.555L188.062 210.445L200.294 192.398Z"
        stroke="#263238"
        stroke-linecap="round"
        stroke-linejoin="round"
    />
    <path
        d="M195.826 117.206C194.168 118.065 192.628 119.135 191.246 120.39C183.936 126.944 184.602 133.385 186.178 136.154C186.178 136.154 184.082 143.951 184.48 147.728C184.878 151.505 183.969 158.286 183.587 163.777C183.205 169.267 179.664 175.643 180.834 181.028C182.003 186.412 180.484 205.06 180.484 205.06C180.484 205.06 178.421 209.324 178.048 211.728C177.979 212.221 177.979 212.721 178.048 213.214L174.669 212.979L174.84 210.542C174.867 210.163 174.742 209.789 174.493 209.502C174.244 209.215 173.891 209.038 173.512 209.011C173.133 208.984 172.758 209.109 172.471 209.358C172.184 209.607 172.008 209.96 171.981 210.339L171.428 218.25C171.416 218.438 171.44 218.626 171.5 218.804C171.56 218.983 171.655 219.147 171.778 219.289C171.902 219.431 172.052 219.547 172.221 219.631C172.389 219.714 172.573 219.764 172.76 219.777C172.948 219.79 173.137 219.765 173.315 219.705C173.493 219.645 173.658 219.551 173.8 219.427C173.942 219.303 174.058 219.153 174.141 218.984C174.225 218.816 174.275 218.632 174.287 218.445L174.458 216.008L179.128 216.333L179.217 216.479L177.187 216.39C177.203 216.971 177.339 217.542 177.586 218.067C177.833 218.593 178.187 219.062 178.624 219.444C180.086 220.646 184.537 220.077 184.537 220.077C184.537 220.077 187.193 220.077 187.485 218.956C187.611 218.29 187.674 217.613 187.672 216.934L189.768 217.08L189.597 219.517C189.57 219.896 189.695 220.27 189.944 220.557C190.193 220.844 190.546 221.021 190.925 221.048C191.304 221.075 191.678 220.95 191.965 220.701C192.253 220.452 192.429 220.099 192.456 219.72L193.008 211.809C193.035 211.43 192.91 211.056 192.661 210.769C192.412 210.482 192.059 210.305 191.68 210.278C191.301 210.251 190.927 210.376 190.64 210.625C190.353 210.874 190.176 211.227 190.149 211.606L189.979 214.043L187.729 213.888C187.729 212.857 187.729 211.866 187.818 211.078C187.814 208.63 187.616 206.186 187.225 203.769C187.225 203.769 193.617 178.591 193.983 173.344C194.222 170.33 194.222 167.302 193.983 164.288C193.983 164.288 199.392 156.28 200.578 151.951C201.38 148.651 201.909 145.291 202.161 141.905C202.161 141.905 208.229 137.251 208.732 130.006C208.862 128.195 208.976 126.709 209.008 125.434C209.056 123.862 208.691 122.305 207.95 120.918C207.208 119.532 206.116 118.364 204.782 117.531C203.448 116.699 201.919 116.23 200.348 116.173C198.776 116.116 197.217 116.472 195.826 117.206Z"
        fill="#263238"
        stroke="#263238"
        stroke-linecap="round"
        stroke-linejoin="round"
    />
    <path
        d="M159.498 182.481C157.875 184.919 156.721 187.637 156.094 190.498C155.282 194.826 154.6 197.101 154.6 197.101C154.6 197.101 153.975 202.477 151.92 205.945C149.865 209.413 145.236 220.443 145.236 220.443C147.153 224.48 150.244 227.846 154.105 230.1C158.273 232.59 162.894 234.228 167.701 234.916L179.225 206.546L181.467 206.359L200.57 218.144C203.038 214.739 205.787 211.547 208.789 208.601C211.208 206.374 213.504 204.018 215.668 201.543C215.668 201.543 203.347 188.922 195.973 184.041C189.833 179.98 186.86 178.307 186.86 178.307C186.86 178.307 167.66 172.727 159.498 182.481Z"
        fill="#263238"
        stroke="#263238"
        stroke-linecap="round"
        stroke-linejoin="round"
    />
    <path
        d="M168.675 180.28C168.675 180.28 162.657 199.984 161.471 202.209C160.48 204.077 151.627 220.37 148.752 225.657C150.316 227.378 152.118 228.866 154.105 230.075C154.811 230.506 155.51 230.887 156.216 231.245L169.211 202.234L174.832 184.617L168.675 180.28Z"
        fill="white"
        stroke="#263238"
        stroke-linecap="round"
        stroke-linejoin="round"
    />
    <path
        d="M210.162 127.626C210.162 127.626 208.358 115.582 201.228 113.316C194.097 111.05 183.563 119.813 179.575 126.376C175.587 132.938 170.275 158.392 168.805 163.582C167.335 168.772 157.987 182.692 157.987 182.692C157.987 182.692 161.081 188.873 171.989 190.733C182.897 192.593 185.845 191.48 185.845 191.48C185.845 191.48 191.96 173.369 197.313 166.238C202.665 159.107 209.496 146.558 210.698 138.924C211.9 131.289 210.162 127.626 210.162 127.626Z"
        fill="#FFC100"
        stroke="#263238"
        stroke-linecap="round"
        stroke-linejoin="round"
    />
    <path d="M187.234 214.031L170.956 212.896L170.742 215.975L187.019 217.11L187.234 214.031Z" fill="white" stroke="#263238" stroke-linecap="round" stroke-linejoin="round" />
    <path
        d="M187.802 221.028C187.99 221.042 188.178 221.019 188.356 220.96C188.535 220.901 188.7 220.807 188.842 220.684C188.984 220.561 189.1 220.411 189.184 220.243C189.267 220.074 189.317 219.891 189.329 219.704L189.881 211.793C189.908 211.415 189.784 211.042 189.535 210.755C189.287 210.469 188.935 210.293 188.557 210.266C188.179 210.239 187.806 210.364 187.52 210.612C187.234 210.86 187.058 211.212 187.031 211.59L186.478 219.501C186.451 219.879 186.576 220.252 186.824 220.538C187.072 220.824 187.424 221 187.802 221.028Z"
        fill="white"
        stroke="#263238"
        stroke-linecap="round"
        stroke-linejoin="round"
    />
    <path
        d="M169.642 219.761C169.83 219.774 170.018 219.75 170.197 219.69C170.375 219.63 170.54 219.536 170.682 219.412C170.824 219.288 170.94 219.137 171.023 218.969C171.107 218.8 171.156 218.616 171.169 218.429L171.721 210.526C171.745 210.147 171.619 209.774 171.37 209.488C171.12 209.202 170.768 209.026 170.389 208.999C170.011 208.972 169.638 209.097 169.351 209.345C169.065 209.593 168.889 209.945 168.862 210.323L168.31 218.234C168.285 218.612 168.411 218.986 168.661 219.272C168.91 219.558 169.263 219.733 169.642 219.761Z"
        fill="white"
        stroke="#263238"
        stroke-linecap="round"
        stroke-linejoin="round"
    />
    <path
        d="M205.865 125.385C205.899 123.825 205.527 122.283 204.784 120.911C204.042 119.539 202.955 118.384 201.631 117.559C200.307 116.733 198.791 116.267 197.232 116.205C195.674 116.144 194.125 116.488 192.74 117.206C191.081 118.063 189.541 119.133 188.16 120.39C180.85 126.944 181.516 133.385 183.083 136.154C183.083 136.154 180.996 143.951 181.394 147.728C181.792 151.505 180.882 158.286 180.492 163.777C180.103 169.267 176.578 175.643 177.747 181.027C178.917 186.412 177.398 205.06 177.398 205.06C177.398 205.06 175.327 209.324 174.962 211.728C174.819 213.409 175.22 215.092 176.107 216.528L174.084 216.439C174.1 217.019 174.236 217.59 174.483 218.116C174.731 218.642 175.084 219.11 175.522 219.493C176.984 220.695 181.435 220.126 181.435 220.126C181.435 220.126 184.082 220.126 184.383 219.005C184.683 217.884 184.545 213.499 184.716 211.086C184.711 208.638 184.513 206.194 184.123 203.777C184.123 203.777 190.515 178.599 190.88 173.352C191.118 170.338 191.118 167.31 190.88 164.297C190.88 164.297 196.298 156.288 197.483 151.959C198.285 148.66 198.815 145.299 199.067 141.913C199.067 141.913 205.134 137.259 205.638 130.014C205.711 128.146 205.833 126.66 205.865 125.385Z"
        fill="white"
    />
    <path
        d="M194.771 116.394C194.068 116.562 193.386 116.81 192.74 117.133C191.081 117.989 189.541 119.06 188.16 120.317C180.85 126.871 181.516 133.312 183.083 136.081C183.083 136.081 180.996 143.878 181.394 147.655C181.792 151.432 180.882 158.213 180.492 163.704C180.103 169.194 176.578 175.57 177.747 180.954C178.917 186.339 177.398 204.987 177.398 204.987C177.398 204.987 175.327 209.251 174.962 211.655C174.819 213.336 175.22 215.019 176.107 216.455L174.084 216.366C174.1 216.946 174.236 217.517 174.483 218.043C174.731 218.569 175.084 219.037 175.522 219.419C176.984 220.621 181.435 220.053 181.435 220.053C181.435 220.053 184.082 220.053 184.383 218.932C184.461 218.56 184.508 218.183 184.521 217.803C183.384 217.105 182.19 216.496 181.451 216.049C178.722 214.424 180.907 208.967 181.175 204.061C181.443 199.155 181.719 186.9 183.611 183.911C185.504 180.922 185.788 187.972 185.788 181.474C185.788 174.977 184.976 170.851 184.976 167.578C184.976 164.305 186.6 161.892 189.329 156.418C192.058 150.944 188.785 146.607 189.605 144.431C190.425 142.254 196.687 137.348 198.32 129.722C198.821 127.579 198.858 125.353 198.428 123.194C197.998 121.035 197.111 118.994 195.827 117.206L194.771 116.394Z"
        fill="#FFC100"
    />
    <path
        opacity="0.5"
        d="M194.771 116.394C194.068 116.562 193.386 116.81 192.74 117.133C191.081 117.989 189.541 119.06 188.16 120.317C180.85 126.871 181.516 133.312 183.083 136.081C183.083 136.081 180.996 143.878 181.394 147.655C181.792 151.432 180.882 158.213 180.492 163.704C180.103 169.194 176.578 175.57 177.747 180.954C178.917 186.339 177.398 204.987 177.398 204.987C177.398 204.987 175.327 209.251 174.962 211.655C174.819 213.336 175.22 215.019 176.107 216.455L174.084 216.366C174.1 216.946 174.236 217.517 174.483 218.043C174.731 218.569 175.084 219.037 175.522 219.419C176.984 220.621 181.435 220.053 181.435 220.053C181.435 220.053 184.082 220.053 184.383 218.932C184.461 218.56 184.508 218.183 184.521 217.803C183.384 217.105 182.19 216.496 181.451 216.049C178.722 214.424 180.907 208.967 181.175 204.061C181.443 199.155 181.719 186.9 183.611 183.911C185.504 180.922 185.788 187.972 185.788 181.474C185.788 174.977 184.976 170.851 184.976 167.578C184.976 164.305 186.6 161.892 189.329 156.418C192.058 150.944 188.785 146.607 189.605 144.431C190.425 142.254 196.687 137.348 198.32 129.722C198.821 127.579 198.858 125.353 198.428 123.194C197.998 121.035 197.111 118.994 195.827 117.206L194.771 116.394Z"
        fill="white"
    />
    <path
        d="M205.865 125.385C205.899 123.825 205.527 122.283 204.784 120.911C204.042 119.539 202.955 118.384 201.631 117.559C200.307 116.733 198.791 116.267 197.232 116.205C195.674 116.144 194.125 116.488 192.74 117.206C191.081 118.063 189.541 119.133 188.16 120.39C180.85 126.944 181.516 133.385 183.083 136.154C183.083 136.154 180.996 143.951 181.394 147.728C181.792 151.505 180.882 158.286 180.492 163.777C180.103 169.267 176.578 175.643 177.747 181.027C178.917 186.412 177.398 205.06 177.398 205.06C177.398 205.06 175.327 209.324 174.962 211.728C174.819 213.409 175.22 215.092 176.107 216.528L174.084 216.439C174.1 217.019 174.236 217.59 174.483 218.116C174.731 218.642 175.084 219.11 175.522 219.493C176.984 220.695 181.435 220.126 181.435 220.126C181.435 220.126 184.082 220.126 184.383 219.005C184.683 217.884 184.545 213.499 184.716 211.086C184.711 208.638 184.513 206.194 184.123 203.777C184.123 203.777 190.515 178.599 190.88 173.352C191.118 170.338 191.118 167.31 190.88 164.297C190.88 164.297 196.298 156.288 197.483 151.959C198.285 148.66 198.815 145.299 199.067 141.913C199.067 141.913 205.134 137.259 205.638 130.014C205.711 128.146 205.833 126.66 205.865 125.385Z"
        stroke="#263238"
        stroke-linecap="round"
        stroke-linejoin="round"
    />
    <path d="M199.018 141.856L193 144.114" stroke="#263238" stroke-linecap="round" stroke-linejoin="round" />
    <path d="M183.083 136.114L187.51 126.489" stroke="#263238" stroke-linecap="round" stroke-linejoin="round" />
    <path
        d="M126.222 189.231C124.111 185.421 121.837 181.198 119.92 179.257C117.102 176.398 115.859 178.607 114.421 180.012C112.984 181.417 106.356 191.115 103.92 192.179C101.483 193.243 100.793 200.406 103.108 203.476C105.422 206.546 107.575 205.466 107.575 205.466C108.238 204.301 108.71 203.037 108.972 201.722C109.451 199.44 118.377 195.395 118.377 195.395C119.294 193.534 120.334 191.735 121.487 190.01C122.454 188.54 124.549 188.751 126.222 189.231Z"
        fill="#FFC100"
        stroke="#263238"
        stroke-linecap="round"
        stroke-linejoin="round"
    />
    <path
        d="M119.92 179.257C117.102 176.398 115.859 178.607 114.421 180.012C112.984 181.417 106.356 191.115 103.92 192.179C101.483 193.243 100.793 200.406 103.108 203.476C103.625 204.228 104.316 204.843 105.122 205.271C103.246 202.835 103.286 199.667 103.741 196.491C104.237 192.999 106.738 192.244 111.481 187.249C114.162 184.428 117.099 181.861 120.253 179.582C120.164 179.468 120.017 179.363 119.92 179.257Z"
        fill="#263238"
        stroke="#263238"
        stroke-linecap="round"
        stroke-linejoin="round"
    />
    <path
        d="M208.172 268.768C203.404 265.105 201.674 263.472 201.674 263.472C201.674 263.472 201.349 265.316 197.532 265.958C194.884 266.404 191.896 265.048 189.881 264.284C188.622 266.721 187.989 268.784 188.111 270.01C188.371 272.577 188.574 277.206 192.415 276.825C196.257 276.443 200.537 275.484 203.477 276.224C206.417 276.963 211.656 277.726 215.238 277.361C218.819 276.995 220.257 275.826 220.176 275.054C220.095 274.282 212.939 272.422 208.172 268.768Z"
        fill="#FFC100"
        stroke="#263238"
        stroke-linecap="round"
        stroke-linejoin="round"
    />
    <path
        d="M220.184 275.054C220.184 274.956 220.038 274.827 219.794 274.688C213.589 277.417 207.879 274.331 203.445 273.478C198.385 272.512 196.501 274.615 191.481 274.396C190.569 274.368 189.661 274.257 188.769 274.063C189.297 275.687 190.304 277.036 192.423 276.825C196.265 276.435 200.545 275.484 203.485 276.224C206.425 276.963 211.664 277.726 215.246 277.361C218.828 276.995 220.265 275.826 220.184 275.054Z"
        fill="#263238"
        stroke="#263238"
        stroke-linecap="round"
        stroke-linejoin="round"
    />
    <path d="M203.355 213.555L209.723 215.854" stroke="#263238" stroke-linecap="round" stroke-linejoin="round" />
    <path d="M1 277.921H321.301" stroke="#263238" stroke-width="2" stroke-linecap="round" stroke-linejoin="round" />
</svg>
